<svg width="64" height="64" viewBox="0 0 64 64" fill="none" xmlns="http://www.w3.org/2000/svg" role="img" aria-label="Spreadsheet icon">
  <defs>
    <linearGradient id="xls-page" x1="15" y1="8" x2="48" y2="56" gradientUnits="userSpaceOnUse">
      <stop stop-color="#FFFFFF"/>
      <stop offset="1" stop-color="#ECFAF2"/>
    </linearGradient>
    <filter id="xls-shadow" x="6" y="5" width="52" height="58" color-interpolation-filters="sRGB" filterUnits="userSpaceOnUse">
      <feDropShadow dx="0" dy="5" stdDeviation="5" flood-color="#345986" flood-opacity="0.12"/>
    </filter>
  </defs>
  <g filter="url(#xls-shadow)">
    <path d="M18 8h21.5L50 18.5V52a4 4 0 0 1-4 4H18a4 4 0 0 1-4-4V12a4 4 0 0 1 4-4Z" fill="url(#xls-page)"/>
    <path d="M39.5 8v10.5H50" fill="#ECFAF2"/>
    <path d="M18 8h21.5L50 18.5V52a4 4 0 0 1-4 4H18a4 4 0 0 1-4-4V12a4 4 0 0 1 4-4Z" stroke="#27A86C" stroke-opacity="0.52" stroke-width="2"/>
    <path d="M39.5 8v10.5H50" stroke="#27A86C" stroke-opacity="0.44" stroke-width="2" stroke-linejoin="round"/>
    <path d="M18 23h25M18 32h25M18 41h25M26 23v18M35 23v18" fill="none" stroke="#27A86C" stroke-width="3" stroke-linecap="round"/>
    <rect x="30" y="45" width="24" height="15" rx="5" fill="#27A86C"/>
    <text x="42" y="55.5" fill="white" font-family="Inter, Arial, sans-serif" font-size="7.5" font-weight="800" text-anchor="middle">XLS</text>
  </g>
</svg>
