<svg width="64" height="64" viewBox="0 0 64 64" fill="none" xmlns="http://www.w3.org/2000/svg" role="img" aria-label="Audio icon">
  <defs>
    <linearGradient id="audio-page" x1="15" y1="8" x2="48" y2="56" gradientUnits="userSpaceOnUse">
      <stop stop-color="#FFFFFF"/>
      <stop offset="1" stop-color="#FFF0F7"/>
    </linearGradient>
    <filter id="audio-shadow" x="6" y="5" width="52" height="58" color-interpolation-filters="sRGB" filterUnits="userSpaceOnUse">
      <feDropShadow dx="0" dy="5" stdDeviation="5" flood-color="#345986" flood-opacity="0.12"/>
    </filter>
  </defs>
  <g filter="url(#audio-shadow)">
    <path d="M18 8h21.5L50 18.5V52a4 4 0 0 1-4 4H18a4 4 0 0 1-4-4V12a4 4 0 0 1 4-4Z" fill="url(#audio-page)"/>
    <path d="M39.5 8v10.5H50" fill="#FFF0F7"/>
    <path d="M18 8h21.5L50 18.5V52a4 4 0 0 1-4 4H18a4 4 0 0 1-4-4V12a4 4 0 0 1 4-4Z" stroke="#DB2777" stroke-opacity="0.52" stroke-width="2"/>
    <path d="M39.5 8v10.5H50" stroke="#DB2777" stroke-opacity="0.44" stroke-width="2" stroke-linejoin="round"/>
    <path d="M17 34h4l3-9 5 18 5-24 4 15h7" fill="none" stroke="#DB2777" stroke-width="3.4" stroke-linecap="round" stroke-linejoin="round"/>
    <rect x="30" y="45" width="24" height="15" rx="5" fill="#DB2777"/>
    <text x="42" y="55.5" fill="white" font-family="Inter, Arial, sans-serif" font-size="7.5" font-weight="800" text-anchor="middle">AUD</text>
  </g>
</svg>
