<svg width="64" height="64" viewBox="0 0 64 64" fill="none" xmlns="http://www.w3.org/2000/svg" role="img" aria-label="Connector management icon">
  <defs>
    <linearGradient id="admin-connector-bg" x1="12" y1="9" x2="52" y2="55" gradientUnits="userSpaceOnUse">
      <stop stop-color="#FFFFFF"/>
      <stop offset=".48" stop-color="#ECFBF8"/>
      <stop offset="1" stop-color="#DDF6F0"/>
    </linearGradient>
    <radialGradient id="admin-connector-glow" cx="0" cy="0" r="1" gradientUnits="userSpaceOnUse" gradientTransform="translate(28 24) rotate(47) scale(28 24)">
      <stop stop-color="#FFFFFF" stop-opacity=".92"/>
      <stop offset="1" stop-color="#FFFFFF" stop-opacity="0"/>
    </radialGradient>
    <filter id="admin-connector-shadow" x="0" y="0" width="64" height="64" color-interpolation-filters="sRGB" filterUnits="userSpaceOnUse">
      <feDropShadow dx="0" dy="8" stdDeviation="8" flood-color="#198376" flood-opacity=".12"/>
    </filter>
  </defs>
  <g filter="url(#admin-connector-shadow)">
    <rect x="9" y="8" width="46" height="46" rx="15" fill="url(#admin-connector-bg)"/>
    <rect x="9.8" y="8.8" width="44.4" height="44.4" rx="14.2" stroke="#FFFFFF" stroke-opacity=".86" stroke-width="1.6"/>
    <rect x="10.4" y="9.4" width="43.2" height="43.2" rx="13.6" stroke="#53B7AA" stroke-opacity=".10" stroke-width=".8"/>
    <rect x="9" y="8" width="46" height="46" rx="15" fill="url(#admin-connector-glow)"/>
    <path d="M27 39l-3 3a8 8 0 0 1-11-11l5-5a8 8 0 0 1 11 0" fill="none" stroke="#53B7AA" stroke-width="2.65" stroke-linecap="round" stroke-linejoin="round"/>
    <path d="M37 25l3-3a8 8 0 0 1 11 11l-5 5a8 8 0 0 1-11 0" fill="none" stroke="#53B7AA" stroke-width="2.65" stroke-linecap="round" stroke-linejoin="round"/>
    <path d="M25 37l14-14" fill="none" stroke="#53B7AA" stroke-width="2.65" stroke-linecap="round" stroke-linejoin="round"/>
  </g>
</svg>
