<svg width="64" height="64" viewBox="0 0 64 64" fill="none" xmlns="http://www.w3.org/2000/svg" role="img" aria-label="AI polish card icon">
  <defs>
    <linearGradient id="feature-ai-polish-bg" x1="12" y1="9" x2="52" y2="55" gradientUnits="userSpaceOnUse">
      <stop stop-color="#FFFFFF"/>
      <stop offset=".48" stop-color="#FFF5EE"/>
      <stop offset="1" stop-color="#FFE6D6"/>
    </linearGradient>
    <radialGradient id="feature-ai-polish-glow" cx="0" cy="0" r="1" gradientUnits="userSpaceOnUse" gradientTransform="translate(28 24) rotate(47) scale(28 24)">
      <stop stop-color="#FFFFFF" stop-opacity=".92"/>
      <stop offset="1" stop-color="#FFFFFF" stop-opacity="0"/>
    </radialGradient>
    <filter id="feature-ai-polish-shadow" x="0" y="0" width="64" height="64" color-interpolation-filters="sRGB" filterUnits="userSpaceOnUse">
      <feDropShadow dx="0" dy="8" stdDeviation="8" flood-color="#BA5626" flood-opacity=".12"/>
    </filter>
  </defs>
  <g filter="url(#feature-ai-polish-shadow)">
    <rect x="9" y="8" width="46" height="46" rx="15" fill="url(#feature-ai-polish-bg)"/>
    <rect x="9.8" y="8.8" width="44.4" height="44.4" rx="14.2" stroke="#FFFFFF" stroke-opacity=".86" stroke-width="1.6"/>
    <rect x="10.4" y="9.4" width="43.2" height="43.2" rx="13.6" stroke="#EF8A55" stroke-opacity=".10" stroke-width=".8"/>
    <rect x="9" y="8" width="46" height="46" rx="15" fill="url(#feature-ai-polish-glow)"/>
    <path d="M32 13l4 12 12 4-12 4-4 12-4-12-12-4 12-4 4-12Z" fill="none" stroke="#EF8A55" stroke-width="2.65" stroke-linecap="round" stroke-linejoin="round"/>
    <path d="M47 12l1.8 5.2L54 19l-5.2 1.8L47 26l-1.8-5.2L40 19l5.2-1.8L47 12Z" fill="none" stroke="#EF8A55" stroke-width="2.65" stroke-linecap="round" stroke-linejoin="round"/>
  </g>
</svg>
